<svg version="1" xmlns="http://www.w3.org/2000/svg" width="933.333" height="933.333" viewBox="0 0 700.000000 700.000000"><path d="M105.5 12.2c-49.6 4.6-89.2 44-93.2 92.6-.4 4.2-.7 58-.7 119.4 0 117.6-.1 115.4 4.3 117.5 2.6 1.2 317 1.3 320.9.1 2.4-.7 3.8-2 4.7-4.2 1-2.5 1.2-35.1 1.1-161.6-.1-87.2-.5-159.2-.9-160.1-2.1-4.4.1-4.3-117.5-4.4-61.4 0-114.8.3-118.7.7zm82 106.9c.4.5.7 10.3.7 21.7v20.8h43.3l.3 12.5.3 12.4H188l.1 18.5v21.7l-.1 3.3h-26.5l.1-21.4c0-18.6-.2-21.5-1.5-21.8-.9-.3-10.7-.4-21.8-.3-13.5.1-20.3-.3-20.4-1-.1-1.4-.1-19.6 0-22 .1-1.9.8-2 21.8-2h21.8v-43.2l12.7-.1c7.3-.1 13 .3 13.3.9zM364.7 11.8c-3.5.9-5.7 2.8-6.6 5.6-.6 1.9-.9 65.1-.8 161.7.2 172.9-.2 160.9 6 162.8 5.1 1.5 318.6.9 321.3-.6 1.2-.7 2.6-2.5 3.1-4 .5-1.6.8-53.4.7-117.8-.1-103.2-.3-115.9-1.8-123.7-4-20.8-13.8-39.2-29-54.3-15.9-15.8-37.7-26.3-60.1-29.1-5.7-.7-230.1-1.3-232.8-.6zm217.8 162.4c.1 6.1-.3 9.8-1 9.9-7.5.5-121.7 0-122.3-.5-.4-.4-.7-5-.7-10.2V164l62 .2 62 .3v9.7zM16.1 358.6c-2 .9-3.3 2.3-3.8 4.3-1 3.9-.9 226.3.1 234.6 2 16.7 7.6 31.5 17.2 45.7 16.9 24.9 45.1 41.8 74.6 44.5 4 .4 57.8.7 119.5.7 122.5 0 116.3.3 118.2-5.8 1.3-4.4 1.2-315.1-.1-319.4-.7-2.4-2-3.8-4.2-4.7-4.6-1.8-317.1-1.8-321.5.1zM190.6 486l15.9-16.1 8.3 8.7c4.5 4.8 8.2 9.1 8.2 9.5 0 .4-6.7 7.5-15 15.7-8.2 8.3-15 15.5-15 15.9 0 .5 6.7 7.6 15 15.8 8.2 8.3 15 15.4 15 16-.1 1.1-15.4 17.5-16.4 17.5-.3 0-7.5-7-15.9-15.5S175 538 174.7 538c-.4 0-7.7 7.1-16.2 15.7L143 569.4l-2.7-2.5c-1.5-1.3-3-2.7-3.3-3-.3-.3-2.7-3.1-5.3-6.2-2.7-3-4.8-5.9-4.8-6.4.1-.4 6.6-7.4 14.6-15.4 7.9-8 14.5-15 14.7-15.6.2-.6-6.6-8.1-15-16.7L125.8 488l5-5.2c2.7-2.9 6.5-7 8.3-9.1l3.3-3.8 16.1 16.1 16.1 16.1 16-16.1zM362.3 358.5c-1.6.7-3.3 2.3-3.9 3.6-1.3 2.8-1.3 319.3-.1 322 2.1 4.4-.2 4.3 118 4.3 100.5 0 121.2-.3 128.2-1.8 11.2-2.4 17.1-4.4 26.5-8.9 27.3-13.1 49.9-42.6 55.5-72.2 1.6-8.8 1.9-26.4 1.9-129.2 0-118.1.1-115.9-4.3-118-.9-.4-73-.8-160.3-.8-121.2-.1-159.3.1-161.5 1zm214.8 119.9c.1.6.2 6.2.3 12.3l.1 11.3h-8c-49.2.3-104.9 0-105.4-.5-.3-.4-.6-5.9-.6-12.4l-.1-11.7h56.8c39.2 0 56.8.3 56.9 1zm.6 71.2V562h-5.6c-8.2.1-84.8.1-97.7 0h-11.1l.2-12.3c.1-6.7.3-12.2.4-12.3 0-.1 25.7-.1 56.9-.1h56.8l.1 12.3z"/></svg>