<?xml version="1.0" encoding="utf-8"?>
<!-- Generator: Adobe Illustrator 22.0.1, SVG Export Plug-In . SVG Version: 6.00 Build 0)  -->
<svg version="1.1" id="Favicon" xmlns="http://www.w3.org/2000/svg" xmlns:xlink="http://www.w3.org/1999/xlink" x="0px" y="0px"
	 viewBox="0 0 1024 1024" style="enable-background:new 0 0 1024 1024;" xml:space="preserve">
<style type="text/css">
	.st0{fill:#2E2A29;}
	.st1{fill:#C2B49A;}
	.st2{opacity:0.5;}
	.st3{fill:#ECECEC;}
</style>
<path class="st0" d="M167,17h322.3c6.6,0,12,5.4,12,12v460.3c0,6.6-5.4,12-12,12H29c-6.6,0-12-5.4-12-12V167C17,84.2,84.2,17,167,17
	z"/>
<path class="st0" d="M534.7,17H857c82.8,0,150,67.2,150,150v322.3c0,6.6-5.4,12-12,12H534.7c-6.6,0-12-5.4-12-12V29
	C522.7,22.4,528,17,534.7,17z"/>
<path class="st0" d="M29,522.7h460.3c6.6,0,12,5.4,12,12V995c0,6.6-5.4,12-12,12l0,0H167c-82.8,0-150-67.2-150-150V534.7
	C17,528,22.4,522.7,29,522.7z"/>
<path class="st1" d="M534.7,522.7H995c6.6,0,12,5.4,12,12V857c0,82.8-67.2,150-150,150H534.7c-6.6,0-12-5.4-12-12l0,0V534.7
	C522.7,528,528,522.7,534.7,522.7z"/>
<g class="st2">
	<path d="M346.2,281.8H282v63.5h-38.9v-63.5h-64.2v-36.3h64.2v-63.5H282v63.5h64.2L346.2,281.8z"/>
</g>
<path class="st3" d="M339.4,272.8h-64.2v63.5h-38.8v-63.5h-64.2v-36.3h64.2V173h38.8v63.5h64.2V272.8z"/>
<g class="st2">
	<path d="M677.5,248.8h181.4v29.7H677.5V248.8z"/>
</g>
<path class="st3" d="M670.8,239.8h181.4v29.8H670.8V239.8z"/>
<g class="st2">
	<path d="M287.9,769.3l46.1,46.4l-25,26.5l-46.8-47.2l-46.8,47.2l-24.3-26.5l45.7-46.4l-45.7-46.4l24.3-26.5l46.8,47.2l46.8-47.2
		l25,26.5L287.9,769.3z"/>
</g>
<path class="st3" d="M281.2,760.3l46.1,46.4l-25,26.5l-46.8-47.2l-46.8,47.2l-24.3-26.5l45.6-46.4l-45.7-46.4l24.3-26.5l46.8,47.2
	l46.8-47.2l25,26.5L281.2,760.3z"/>
<g class="st2">
	<path d="M684.6,707.3h167.2v36.3H684.6V707.3z M684.6,795.1h167.2v36.3H684.6V795.1z"/>
</g>
<path class="st0" d="M677.8,698.3h167.2v36.3H677.8V698.3z M677.8,786.1h167.2v36.3H677.8V786.1z"/>
</svg>
