<svg xmlns="http://www.w3.org/2000/svg" viewBox="0 0 1900 666"><path fill="#45224d" d="M477.89 141.29C442.52 95.7 400.71 55.61 361 13.8c-104.26 106-207.69 212.82-311.8 319C152 440.34 257.12 545.69 361 652.2c45-46.13 89.38-92.8 134.27-139.07 34.34-32.15 62-72.11 75.61-117.41 28.81-93.22-13.2-200.29-92.99-254.43zM360.68 44.5c24.27 25 48.26 50.18 72.38 75.33-47.08-16.72-98.63-15.83-145.79 0 24.27-25.36 48.94-50.24 73.41-75.33zm.14 576.93c-24.67-25-49.14-50.24-73.82-75.26a233.83 233.83 0 0 0 147.44.07c-24.61 24.95-49.08 50.1-73.62 75.19zM428.54 524c-69.91 27.58-153.81 8-206.54-44.8-23.9-24.67-125.07-127.28-144-146.27 48.39-48.8 96.5-98 145-146.68 59.63-62.1 165-76.77 237-28.17l6.19 4.37A158.84 158.84 0 0 1 510 272.11c0 87.5-62.13 158.79-149.06 159.09-55.4-.19-97-40.91-97-95.4s41.78-95.42 97.39-95.42c26.32 0 49.35 8.23 68.11 27.31l15.46-15.47c-20.39-22.37-50.67-33.56-84.23-33.56-69.42 0-120.75 49.69-120.75 117.14s51.33 117.14 120.42 117.14c99.2 0 171.41-81.12 171.41-180.83a180.81 180.81 0 0 0-8.75-55.68c22.38 33.37 35.83 72.78 36.08 113 2.09 83.15-51.03 166.98-130.54 194.57zm236.58-209.43c0-67.44 51.32-117.12 120.74-117.12 33.56 0 63.83 11.18 84.23 33.55l-15.46 15.47c-18.76-19.08-41.79-27.31-68.11-27.31-55.6 0-97.39 40.8-97.39 95.41S730.92 410 786.52 410c26.32 0 49.35-8.23 68.11-27.64l15.46 15.46c-20.4 22.38-50.67 33.89-84.56 33.89-69.09-.01-120.41-49.71-120.41-117.14zm380 7.9v107.26h-22.37v-27c-10.53 17.77-30.93 28.62-59.55 28.62C924 431.37 900 411 900 381c0-26.65 17.1-49 66.78-49h55v-10.52c0-29.61-16.78-45.73-49-45.73-22.38 0-43.43 7.9-57.58 20.4l-10.53-17.44c17.44-14.8 43.1-23.36 70.41-23.36 44.71 0 70.04 22.37 70.04 67.12zm-23.36 55.27v-28.29h-54.29c-33.56 0-44.41 13.16-44.41 30.93 0 20.06 16.12 32.57 43.75 32.57 26.32.05 45.74-12.51 54.95-35.21zm86.85-192.14H1132v244.13h-23.36zm71.07 157.6c0-51.66 37.5-87.85 89.16-87.85 29.28 0 54 11.52 67.78 34.22l-17.44 11.84c-11.85-17.43-30.27-25.66-50.34-25.66-37.84 0-65.47 27-65.47 67.45 0 40.79 27.63 67.44 65.47 67.44 20.07 0 38.49-7.89 50.34-25.33l17.44 11.84c-13.82 22.38-38.5 34.22-67.78 34.22-51.66 0-89.16-36.52-89.16-88.17zm358.61-86.53v173.06h-22.37v-31.59c-12.17 21.06-34.55 33.23-62.18 33.23-44.09 0-73-24.67-73-74.35V256.67h23.36v98c0 36.85 19.08 55.61 52 55.61 36.19 0 58.89-23.36 58.89-62.85v-90.8zm65.47-71.07h23.36v244.13h-23.36zm71.06 157.6c0-51.33 37.51-87.85 88.18-87.85s87.84 36.52 87.84 87.85-37.18 88.17-87.84 88.17-88.18-36.85-88.18-88.17zm152.33 0c0-40.47-27.3-67.45-64.15-67.45s-64.49 27-64.49 67.45 27.64 67.44 64.49 67.44 64.15-26.97 64.15-67.44z"/></svg>