<svg version="1" xmlns="http://www.w3.org/2000/svg" width="1365.333" height="1365.333" viewBox="0 0 1024.000000 1024.000000"><path d="M547.9 66.1c-18.4 18.7-39.5 40.3-46.9 47.9-7.4 7.6-27.9 28.6-45.6 46.7-17.7 18-40.6 41.5-51 52.2-32.7 33.5-37.2 38.1-67.6 69.2-16.3 16.7-34.2 35.1-39.8 40.9-5.6 5.8-23.6 24.2-40 41s-34.4 35.2-40 41c-5.6 5.8-25.8 26.4-44.9 45.8-19 19.5-40.1 41-46.8 47.9l-12.2 12.6 7.4 7.6c4 4.2 10.1 10.5 13.5 14.1 3.4 3.6 15.3 15.9 26.3 27.4 11.1 11.5 23.3 24.1 27.1 28 6 6.2 36.5 37.6 69.9 72 6 6.1 26.2 26.8 45 46 18.8 19.1 40 40.7 47.1 48 7 7.2 32.2 32.8 56 56.9 23.7 24.2 49.2 50.1 56.6 57.7 7.4 7.6 29.8 30.4 49.6 50.7 19.9 20.2 43.8 44.6 53.1 54.2l17 17.3 12-12.3c6.7-6.8 15.6-16.1 20-20.5 8.6-9 46.4-48.2 55.8-57.9 3.3-3.5 14.6-15.2 25.1-26.1 10.6-11 22-22.8 25.4-26.4 23.5-24.5 53-54.9 67-69 20.7-20.7 30.8-31.7 38.5-41.6 1.7-2.1 4.1-5.2 5.5-6.9 7.4-8.7 24.8-34.1 31.1-45.1 5.7-10.2 7.1-12.7 12.2-22.6 2.9-5.8 6.1-12.4 7-14.6.9-2.3 2.5-6 3.6-8.4 1-2.4 2.9-7 4.1-10.3 1.2-3.3 2.8-7.6 3.6-9.5 4.2-10.8 12-40.8 13.9-54 .4-2.4.8-4.7 1-5 .1-.3.6-4.1 1-8.5s1-11.2 1.5-15c.7-7.2.5-49.4-.3-53-.3-1.1-.8-5.2-1.1-9-.4-3.9-.9-7.7-1.1-8.5-.2-.8-.6-3.8-1-6.5-.3-2.8-1-6.8-1.5-9s-1.2-5.6-1.5-7.5c-1.2-7.1-7.6-30.1-11.9-42.7-10.3-30-28.1-65.2-44.8-88.8-1.5-2.2-3.6-5.1-4.6-6.5-.9-1.3-6.2-8.1-11.7-15-17.3-21.7-41.8-44.9-66.3-63-4.7-3.4-9.9-8.6-14.5-14.4-7.6-9.7-25.8-31.4-31.8-38.1-24.8-27.5-32.9-36.6-35.9-39.6-1.9-1.9-10.5-10.9-19.1-20-8.6-9-20.1-21-25.5-26.6C604.2 55.1 585.6 35.8 584 34c-.9-1.1-1.9-2-2.2-2-.3 0-15.5 15.3-33.9 34.1zm43.4 22.6c5.2 5.4 12.4 12.8 15.9 16.4 16.5 17.4 42 43.8 47.8 49.9 5.4 5.6 32.5 34 33.9 35.5.2.3-2.9-.7-7-2.1-14-4.8-36.2-9.8-56.9-12.9-29.6-4.4-72.7-3.1-105.5 3.1-4.4.9-9.1 1.8-10.5 2-5.3 1-29.7 7.7-32.7 8.9-1.8.8-3.3 1.1-3.3.7 0-.9 11.1-12.5 52.3-54.6 18.3-18.6 38.2-38.9 44.2-45.2 6.1-6.3 11.3-11.4 11.6-11.4.3 0 4.9 4.4 10.2 9.7zM608 206.4c6.4.6 18 2.3 29.5 4.2 5.3.8 25.7 6.4 33.5 9.1 22.6 7.8 38.9 15.8 58.5 28.9 9.5 6.3 12.3 8.8 20.4 18.6 22.3 26.7 39 59 47.5 92 3 11.5 4 16.8 6.1 30.8 1.8 11.9 2.3 40 1 52.1-.4 3.5-.9 8-1 9.9-.4 4.9-1.5 11.8-2.6 16.8-.5 2.3-1.2 5.9-1.5 8-.3 2-2.1 9.1-4 15.7-18.5 64.4-60.7 116.3-116.9 143.9-18 8.8-42.3 16.8-58 19.1-2.2.3-5.8.8-8 1.1-2.2.3-5.1.8-6.5 1.1-1.4.2-10.1.6-19.5.7-18.6.4-30-.9-45.3-4.9-49.2-13-87.2-50.4-99.7-98-2.3-8.6-2.7-10.5-4.2-20.5-1.2-7.1-.8-36.9.5-43 .6-3 1.4-6.9 1.7-8.7 1-6.1 7.4-24.3 11.4-32.4 6.4-12.9 14.6-24.3 25-34.8 13.4-13.6 22.5-20.3 38.6-28.3 7.1-3.5 22.7-9.3 27.7-10.2 1.5-.2 3.1-.7 3.6-1 .5-.3 3.1-.8 5.8-1.2 2.7-.3 5.2-.8 5.6-1 1.1-.7 17.1-1.8 25.3-1.8 10.2.1 21.5 1 28.5 2.4 3 .6 6.7 1.3 8.1 1.5 11.4 2 31.9 11 44.5 19.5 6.8 4.7 18.1 14.2 19.7 16.8.6.8 4.4-2.4 12.9-10.8l12.1-12-6.4-6.1C686.3 369 666.4 357 646 350c-7.2-2.4-6.4-2.2-17.6-4.9-22.7-5.6-54.5-7.1-75.9-3.6-1.6.3-4.6.8-6.5 1.1-8.6 1.3-25.1 5.8-33.9 9.1-45.6 17-80.7 50.4-98.7 94-3.2 7.8-7.1 19.3-7.9 23.2-.2.9-.8 3.4-1.3 5.6-.6 2.2-1.5 7.4-2.1 11.5-.6 4.1-1.3 9.5-1.7 12-1.7 12-.4 37.9 2.7 54 12.8 66.3 62.6 117.9 129.4 133.9 19.1 4.6 25.9 5.4 47.5 5.5 9.1.1 20.3-.2 25-.6 7.9-.7 10.6-1.1 17-2.3 1.4-.3 4.3-.8 6.5-1.1 9.9-1.4 24.6-5.4 37.9-10 97.1-34.2 164.1-126.8 171.3-236.9 1.3-20.1.4-46-2.1-60-.3-1.7-.8-4.8-1.1-7-.9-5.7-4.1-19.9-6.3-27.8-1.1-3.7-1.8-6.7-1.7-6.7.3 0 6.1 9 8 12.5.7 1.1 3 5.2 5.2 9 16.8 29.7 31.4 71.3 35.9 102.5 2.8 19.3 3.2 26.5 3 52-.2 15.1-.6 28.5-.9 29.7-.3 1.2-.9 5-1.2 8.5-.4 3.5-1.5 10.6-2.6 15.8-1.1 5.2-2.3 10.6-2.5 12-1.2 6.1-7 25.5-10.9 36-16.3 44.1-39.8 81.2-72 113.6-21.9 21.9-37.9 34.3-62.2 47.8-14.1 7.9-14.3 8-24.3 12.3-27.2 11.8-58.9 21.1-82 23.8-3 .4-7.5.9-10 1.2-7.1.9-48.8.9-56 0-8.2-1.1-24.7-3.5-28-4.2-1.4-.3-3.4-.7-4.5-.9-1.1-.2-6.7-1.6-12.5-3.1-31.9-8.1-63.3-21.9-90-39.5-16.1-10.6-29-20.8-41-32.5-6.5-6.3-23.9-23.9-102.5-104-8.8-9-38.9-39.6-67-68-28-28.4-51.1-51.8-51.3-51.9-.1-.2 9.6-10.2 21.5-22.3 12-12.2 47-47.6 77.8-78.8 97.2-98.5 132.8-133.9 141-140.4 4.4-3.5 9-7.2 10.3-8.2 1.2-1 2.6-1.9 3.1-1.9s1.1-.3 1.3-.8c.8-1.9 22-14.5 37.3-22.2 26.6-13.4 57.8-23.7 83.3-27.5 2.3-.3 5.6-.8 7.4-1.1 6-.9 9.2-1.2 19.3-1.9 5.5-.4 10.1-.8 10.2-.9.6-.5 31.6.2 38.3.8zM487.1 836.9c6.4 1.7 12.4 3.3 13.5 3.5 1 .2 3.7.9 5.9 1.4 2.2.6 5.6 1.3 7.5 1.6 1.9.3 4.5.8 5.6 1 2.6.5 7.2 1.2 13.9 2.1 2.8.4 6.1.9 7.5 1.1 14.2 2.4 68 2.4 80.6 0 1.1-.2 4.7-.7 7.9-1.1 3.3-.4 10.5-1.6 16-2.7s11.3-2.2 12.9-2.4c1.6-.3 9.2-2.3 17-4.4 7.7-2.2 14.2-3.8 14.3-3.6.2.1-7 7.7-16 16.8-8.9 9.1-31.5 32.2-50.2 51.4C586 940 582 944 581.6 944c-.5 0-15-14.6-51.2-51.6-53.6-54.7-55.8-56.9-57.4-58.9-1.4-1.7-1.3-1.7.5-.8 1.1.6 7.2 2.4 13.6 4.2z"/></svg>