<svg version="1" xmlns="http://www.w3.org/2000/svg" width="1365.333" height="1365.333" viewBox="0 0 1024.000000 1024.000000"><path d="M544.4 68.7c-20.3 20.7-41.4 42.2-46.9 47.8-18.9 19.2-74.3 76-85.5 87.5-6.2 6.3-24.2 24.8-40 41s-33.6 34.4-39.5 40.5c-5.9 6-23.8 24.4-39.9 40.8-16 16.5-33.4 34.3-38.6 39.7-5.2 5.4-24.1 24.7-42 43-17.8 18.2-36.9 37.7-42.3 43.3-5.5 5.6-20.9 21.4-34.3 35.1L111 512.2l7.4 7.7c4.1 4.2 9.6 9.9 12.3 12.8 2.7 2.8 14.3 14.9 25.8 26.8 11.6 12 24.2 25 28 29 7.8 8.2 53.3 55 69.5 71.5 17.4 17.8 76.3 78 90.7 92.7 7.4 7.6 33 33.6 56.8 57.8 23.8 24.2 49.2 50.1 56.5 57.5 7.3 7.4 24.1 24.6 37.4 38.1 13.2 13.5 37.8 38.6 54.6 55.7 16.7 17.2 30.8 31.2 31.3 31.2s3.8-3 7.4-6.8c3.6-3.7 17.1-17.5 29.9-30.8 12.9-13.3 25.5-26.4 28.2-29.1 2.6-2.8 13.3-13.9 23.7-24.8 10.5-10.8 21.9-22.6 25.4-26.3 6.1-6.4 34.2-35.6 63.1-65.5 7.4-7.7 21.4-22 31-31.7 19.7-19.9 21.4-21.7 32.6-35 27.6-32.7 51.9-72.8 65.3-108 1.2-3 2.6-6.4 3.1-7.5 3.7-8.2 14.1-46.2 15.6-57 .3-2.8.7-5.2.9-5.5.2-.3.6-3.4 1-7s.9-7.4 1.1-8.5c.8-3.9 1.8-23.2 1.8-34 0-11.3-1.3-35.8-1.9-37.9-.2-.6-.6-3.4-.9-6.1-.3-2.8-.7-5.9-1-7-.6-3.3-1.5-8.7-2.2-13-.8-5-.3-3-5-21.6-7.8-31.4-20.1-61.6-37.2-91.4-6.7-11.8-19.4-31-24.6-37.6-1.2-1.4-3.4-4.3-5.1-6.5-4.6-5.9-13.9-16.6-19.5-22.6-2.9-2.9-14.7-15.2-26.3-27.2-11.7-12-24.3-25.1-28.1-29-3.7-3.9-17.5-18.1-30.6-31.6-13.1-13.5-26.4-27.3-29.6-30.7-3.3-3.3-15.6-16.1-27.4-28.3-70.6-73-81.5-84.2-86.1-89.1l-4.7-4.8-36.8 37.6zM585 82.1c.3.4 9.6 10.1 20.7 21.5 11 11.5 22.3 23.2 25 26 2.6 2.9 13.1 13.8 23.3 24.4 28.1 29.2 33.9 35.4 33.5 35.8-.2.2-4.7-1.1-10.1-2.8-10.3-3.3-22.2-6.2-34.4-8.5-14.6-2.8-16.4-3-27.8-4.1-4.2-.4-9-.8-10.7-1-5.4-.7-38.9-.6-47 .1-12.2 1-31.2 3.5-38.7 5-3.7.8-8.2 1.7-10 2-6.8 1.2-12.6 2.7-24.2 6.1-6.5 1.9-12 3.4-12.1 3.2-.4-.4 13.7-15.1 53.9-56.2 18.7-19.1 38.6-39.5 44.1-45.1 9.7-10 10.1-10.3 12-8.7 1.1.9 2.2 2 2.5 2.3zm22.5 124.3c1.7.3 5.7.8 9 1.1 5.1.4 13.5 1.8 24.4 4 38 7.5 88 31.5 104.2 50 21 24 35.6 48.8 46.8 79.3 3.1 8.4 7.7 24.8 8.7 31.2.3 1.9.8 3.8 1 4.1.2.4.6 3.1.9 6 .4 3 .8 6 1.1 6.8 2.3 7.1 2.3 51.9 0 66.1-.3 1.4-.7 4.6-1.1 7.2-.3 2.6-.7 5.3-1 6-.2.7-.7 3.1-1 5.3-.3 2.2-1 5.8-1.6 8-.6 2.2-1.3 4.7-1.4 5.5-1.2 5.1-6 20.1-9.1 28.1-17.6 45.8-48.6 84.4-88.9 110.9-15.5 10.1-48.1 24.4-62.5 27.4-1.4.3-4.3 1-6.5 1.5-4.6 1.1-8 1.8-14.4 2.7-2.5.4-5.4.8-6.3 1-10.4 1.8-35 2-48.3.4-16.7-2.1-38.8-8.8-50.5-15.2-9.8-5.5-13.1-7.6-20-12.7-29.2-21.4-48.3-54.1-54.3-93.1-1.5-9.3-1.6-35-.2-43 5.7-33.8 20.6-62.6 42.4-82.5 8.4-7.6 9.6-8.6 18.3-14.5 18.6-12.6 40.7-20.7 64.3-23.7 7.8-1 32.1-1 41 0 3.9.4 10.8 1.6 15.5 2.8 4.7 1.1 9.2 2.2 10 2.4 3.4.7 17.9 6.9 24 10.2 8.3 4.5 20 12.9 26.9 19.3 3 2.7 5.5 5 5.7 5 .1 0 5.5-5.3 11.9-11.7l11.7-11.7-5.9-5.6c-15.4-14.9-32.4-25.5-53.6-33.4-9.4-3.5-26-7.9-34.2-9-2.2-.3-6.5-.9-9.5-1.3-13.2-1.8-45.9-.8-59.3 1.8-2.9.5-6.7 1.2-8.6 1.5-5.3.9-22.2 6.1-30.8 9.5-35.9 14.1-67.7 42.2-86.1 75.8-9.9 18.2-17.4 41.4-19.7 60.8-.3 2.6-.8 6.2-1.1 8-.6 4-.6 32.9 0 36.3.3 1.4.7 4.7 1 7.5.6 5.4 1.2 8.9 3.1 17 4.6 20.1 14 41.8 25.1 57.7 13.6 19.4 27 32.6 45.9 45.3 21.7 14.5 51.4 25.8 76.5 28.9 2.5.3 6.8.8 9.5 1.2 6.8.8 33.7.8 40.5 0l11-1.1c7.3-.7 9.4-1.1 23.5-3.9 12.2-2.5 22.9-5.7 37.1-11.1 83.1-31.9 143.1-106.2 161-199.4.8-4.1 1.7-9.7 2-12.5.3-2.8.8-5.8 1-6.6 2.4-7.2 2.4-59.6 0-72.6-.2-1-.7-4.4-1.1-7.4-.3-3-1.1-7.1-1.5-9-.5-1.9-1.1-4.9-1.4-6.5-.7-3.9-4.3-17.5-5.6-21.2-1-2.7-.9-2.7.6-.8 6.8 8.6 23.7 41.1 30.9 59.4 6.2 15.9 12.9 38.3 14.9 49.6.3 1.6 1 5.5 1.6 8.5.6 3 1.3 7.5 1.6 10 .3 2.5.7 5.1.9 5.8 2.6 7.8 2.6 57.9 0 76.2-.2 1.9-.7 5.5-1 8-.3 2.5-1 6.7-1.5 9.5-.6 2.7-1.2 6.1-1.5 7.4-1.1 5.6-5.8 23.3-8.6 31.9-11.4 35.7-31.5 72.9-55.1 102.4-10.8 13.4-32.5 35.2-45.8 45.8-36.9 29.4-84.4 50.9-132 59.5-8.8 1.6-9.5 1.7-22 3.2-14.1 1.5-55.1.9-66-1.2-1.4-.2-5.6-.9-9.5-1.5-23.7-3.6-54-12.8-78-23.9-23.6-10.8-43.7-23.5-67.4-42.4-3.5-2.9-48.9-48.5-109.6-110.2-71.1-72.2-83.3-84.6-105.1-106.5L155 512.5l26.6-27c152.7-155 202.4-204.9 213-213.7 45.5-37.6 104.9-61.2 164.4-65.4 5.2-.4 9.6-.8 9.8-.9.6-.5 35.7.3 38.7.9zM478 836.4c0-.3.8 0 1.8.5 1.7.9 18.8 5.6 24.2 6.6 1.2.2 2.9.6 3.8.9.9.3 3.5.7 5.7 1.1 2.2.3 4.7.8 5.5 1 1.8.6 3.2.8 21 3.1 19.7 2.5 67.9 2.5 81.7 0 1-.2 4.5-.7 7.8-1.1 3.2-.4 6.7-.8 7.6-1 .9-.2 3.4-.6 5.5-.9 11-1.8 34.5-7.5 42.2-10.3 2.3-.9 4.4-1.4 4.7-1.2.2.3-7.3 8.4-16.8 18.1-41.7 42.7-81.6 83.4-86.4 88.3l-5.3 5.3-5.2-5.3c-11.5-11.4-95.5-97.3-102.3-104.5l-3-3.2 3.8 1.5c2 .9 3.7 1.4 3.7 1.1z"/></svg>