<svg xmlns="http://www.w3.org/2000/svg" viewBox="0 0 600 140" fill="#c2b49a"><path d="M30.4 32.4H8.5l19.1 59.2 10.8-33.8-8-25.4zm81.6 0L96.2 80.9l-8.8 26.8h20.5l24.4-75.3H112zm-30.9 0H61.5l-15.9 48-8.4 27.2h18.5l15.1-45.8 8 25.4 10.1-29.9-7.8-24.9zm118.4 0h-59.7v16.4h59.7V32.4zm0 29.1h-59.7v15.9h59.7V61.5zm-59.6 29.7v16.4h59.7V91.2h-59.7zm140.2-15.7c-2.5-3.2-5.9-5.6-10.1-7.1 3.1-1.6 5.7-3.9 7.4-6.7 1.7-2.8 2.7-6 2.7-9.7 0-6-2.6-10.8-7.5-14.3-5.1-3.5-12.4-5.4-21.9-5.4h-38.5v15.4h35.7c7.1 0 10.8 2.5 10.8 7.2 0 4.9-3.7 7.3-10.8 7.3h-35.7V77H251c7.4 0 11.2 2.6 11.2 7.6 0 5.2-3.8 7.6-11.2 7.6h-38.9v15.4h40.6c10 0 17.6-1.7 23-5.4 5.3-3.5 8-8.6 8-15.3 0-4.4-1.3-8.2-3.6-11.4zm31 28.7c6.2 3.3 13.3 4.9 21.3 4.9 6.9 0 13-1.2 18.6-3.7 5.5-2.4 10.1-5.9 13.8-10.5l-13.5-12.3c-4.9 5.9-10.9 8.8-17.7 8.8-4.1 0-7.7-.9-11-2.7-3.2-1.7-5.7-4.3-7.4-7.5-1.7-3.2-2.6-7-2.6-11.3 0-4.2.9-8 2.6-11.2 1.7-3.2 4.2-5.8 7.4-7.6 3.2-1.7 6.9-2.7 11-2.7 6.9 0 12.8 3 17.7 8.8l13.5-12.3c-3.7-4.5-8.3-8.1-13.8-10.5-5.6-2.4-11.7-3.7-18.6-3.7-8 0-15.1 1.7-21.3 5.1-6.2 3.3-11.2 8-14.7 13.9-3.7 6-5.4 12.7-5.4 20.2s1.7 14.3 5.4 20.2c3.5 6.1 8.4 10.8 14.7 14.1zM418 32.4h-21l-33.2 75.3h21.7l5.9-14.6 6.2-15.7 9.7-24.1 9.7 24.1 6.2 15.7 5.9 14.6h22.1L418 32.4zm39.4 0v75.3h57.2v-17h-35.9V32.4h-21.3zm80.5 71.8c6.2 3.3 13.3 4.9 21.3 4.9 6.9 0 13-1.2 18.6-3.7 5.5-2.4 10.1-5.9 13.8-10.5L578 82.7c-4.9 5.9-10.9 8.8-17.7 8.8-4.1 0-7.7-.9-11-2.7-3.2-1.7-5.7-4.3-7.4-7.5-1.7-3.2-2.6-7-2.6-11.3 0-4.2.9-8 2.6-11.2 1.7-3.2 4.2-5.8 7.4-7.6 3.2-1.7 6.9-2.7 11-2.7 6.9 0 12.8 3 17.7 8.8L591.5 45c-3.7-4.5-8.3-8.1-13.8-10.5-5.6-2.4-11.7-3.7-18.6-3.7-8 0-15.1 1.7-21.3 5.1-6.2 3.3-11.2 8-14.7 13.9-3.7 6-5.4 12.7-5.4 20.2s1.7 14.3 5.4 20.2c3.6 6 8.5 10.7 14.8 14z" class="st0"/></svg>