<svg version="1" xmlns="http://www.w3.org/2000/svg" width="1366.667" height="1366.667" viewBox="0 0 1025.000000 1025.000000"><path d="M546.4 67.6c-19.7 20.1-40.8 41.7-46.9 47.9-6 6.2-25.7 26.3-43.6 44.6-18 18.4-37.1 38-42.5 43.5-20.7 21.2-72.7 74.5-91.2 93.4-10.6 10.9-23.2 23.8-28 28.8-4.8 4.9-22.4 23-39.2 40.2-16.8 17.2-35.2 36-40.9 41.9-5.6 5.8-26 26.6-45.1 46.1-59.4 60.6-57 58.1-55.7 59.5.7.6 9.3 9.7 19.2 20 9.9 10.3 20.7 21.6 24 25 3.3 3.4 16.6 17.1 29.5 30.5 27.2 28.1 31.7 32.8 68.5 70.5 44.1 45.2 53.7 54.9 94.3 96.4 21.3 21.6 44.9 45.7 52.6 53.5 7.6 7.7 32.4 33 55.1 56.1 50.7 51.6 59.5 60.6 95.9 97.9 16 16.3 29.4 29.6 29.9 29.6s3.6-2.9 7-6.4c3.4-3.5 16.2-16.7 28.4-29.3 12.1-12.5 25.2-26 29-29.9 3.7-3.9 15.6-16.2 26.3-27.4 10.7-11.1 22.1-23 25.4-26.3 27.8-29.2 71.3-74.1 95-98 43.7-44.2 72.5-85.6 92.7-133.7 8.3-19.9 16.5-45.9 19.8-63 .6-3 1.2-6.4 1.4-7.5 8.4-40.3 6.1-98.1-5.8-142-.9-3.3-1.8-6.9-2-7.9-1-4.3-8.1-24.8-12.5-36.1-6.9-17.4-20.3-44.5-26-52.5-1.1-1.5-2-3.1-2-3.5 0-.9-13.3-20.5-19.3-28.5-12.2-16.1-15.3-19.5-49.7-55-12-12.4-25-25.9-29-30-4-4.1-17.2-17.8-29.4-30.4-12.1-12.5-25-25.9-28.6-29.6-3.6-3.7-17.5-18.1-31-32-13.5-13.9-27.4-28.3-31-32-3.6-3.7-16.6-17.2-29-30-12.4-12.8-24.1-25-26.1-27.1l-3.6-3.9-35.9 36.6zm36.8 11.3c.2.5 9.8 10.6 21.3 22.6 11.6 12 23.7 24.6 27 28 3.3 3.4 14.1 14.7 24 25s20.2 21 22.9 23.9c2.6 2.8 6.4 6.7 8.3 8.7l3.5 3.6-8.8-2.8c-4.8-1.6-9.7-3.1-10.8-3.4-1.2-.2-4.8-1.1-8.1-2-8.2-2-24.6-5.4-29.2-6-2.1-.3-5.4-.7-7.3-1-18.5-2.5-49.9-3.5-67-2.1-8.7.8-18.1 1.7-20.1 2.1-.9.2-4 .6-7 1-9.4 1.1-28.9 5.3-42.4 9.1-7.1 2-13.9 3.8-15 4.1-1.4.4-.6-.9 2.7-4.3 2.5-2.7 7.4-7.8 10.8-11.4 3.4-3.6 21.1-21.7 39.4-40.3 18.2-18.7 37.8-38.8 43.6-44.8 5.8-5.9 10.8-10.8 11.2-10.9.3 0 .8.4 1 .9zm24.6 127.5c2.8.3 7.5.9 10.4 1.2 2.8.3 5.8.7 6.7.9.9.1 5 .8 9.1 1.5 43.3 7 94.9 31.5 114.4 54.2 8.2 9.6 17.5 22.3 23.5 32.2 6.7 10.9 17.6 34.1 21.5 45.6 3 8.9 4 12.3 6.2 20.5.8 2.9 4.4 21.6 4.9 25.5 1.6 12.7 2.2 23 2 37.5-.3 14.5-.6 20-2 29-.3 1.6-.7 4.9-1 7.1-2.7 22.2-13.1 54.8-24.2 76.3-17.8 34.2-38.9 58.9-70.8 82.9-3.8 2.9-18.4 11.6-25 15-23.6 12.1-40.5 17.4-72.5 22.7-9.9 1.7-34.3 2.2-44.9 1-24.7-2.7-48.3-11-67.7-23.8-8.3-5.5-21.5-16.8-26.4-22.7-1.9-2.3-4.4-5.1-5.4-6.3-3.2-3.8-12.2-17.9-15.3-24.2-10.6-21.4-15.1-42.3-14.7-67.7.1-9 .5-17.7.8-19.3.4-1.7 1.3-6.5 2.2-10.8 8-40.5 36.1-76.8 73.9-95.6 15.5-7.7 30.7-12.3 50.5-15 6.7-1 38.3-.8 41 .2.8.3 3.4.8 5.7 1.1 21.6 2.7 50.5 16.4 67.3 31.9 8.5 7.7 6.3 8.3 19.4-4.9l11.7-11.7-3.8-4c-19.7-20.3-50.8-36.5-82.3-42.6-16-3.1-18.1-3.3-38-3.6-25.6-.4-43.9 2.2-66 9.5-28 9.2-49.8 22.5-70 43-32 32.4-49 74.9-49.2 123-.3 47.3 16.3 90.3 47 122.4 30 31.4 69.7 49.9 116.2 54.2 15.1 1.4 39.9.6 55-1.7 11.3-1.7 12.3-1.9 23-4.5 36.6-8.7 66.3-22.8 95.8-45.6 9.6-7.4 29.7-26.5 36.2-34.3 19.5-23.3 33.6-46.3 44.4-72 3.4-8.2 9.1-23.9 10.2-28.2.2-1 1.3-5.2 2.4-9.3 1.1-4.1 2.2-8.4 2.4-9.5 3.5-16.8 3.7-17.6 5.7-34 1.4-11.4 1.8-44.8.6-57.5-1.1-12.2-4.3-31-7.2-42-1.3-5.2-2.7-10.6-3.1-12-.5-2.1-.3-2 1.8 1 3.9 5.5 15.1 25.6 20.1 36 9.9 20.8 16.6 39.5 22.1 62.2 3.4 13.8 4.1 17.8 5.2 26.3.3 2.2.7 4.9.9 6.1 1.9 9.1 2.6 52.8 1.1 67.9-3.7 37.5-15.5 77.8-32.4 111-10.7 21-26.1 44.9-37.8 58.5-1.2 1.4-4.3 5-6.9 8-8.1 9.5-27 27.6-37.7 36.2-25.1 20-48.2 32.7-84.8 46.5-12.2 4.7-34.9 11-45.5 12.7-1.6.2-5 .8-7.5 1.1-2.5.4-5.2.9-6.1 1-10.8 2-48.6 2.7-64.8 1.2-8.7-.8-24.6-3.2-31.6-4.7-2.2-.5-5.3-1.1-7-1.4-5.5-1-24.9-6.7-34.9-10.3-28.9-10.3-57.4-25.7-80.7-43.4-16-12.2-18.4-14.4-66.9-63.9-20.1-20.5-44.1-45-53.3-54.4-15.9-16.1-123.9-125.5-125-126.6-.6-.6 14.4-15.9 107.8-110.6 126.5-128.1 130.6-132 153.4-147.3 33.3-22.3 76.6-39.5 115.1-45.5 1.9-.3 5.1-.8 7-1.2 4.7-.8 7.7-1.1 19.5-1.9 5.5-.4 10.1-.8 10.3-1 .5-.4 33 .3 38 .9zM480.1 837c12.2 3.7 34.7 8.8 46.4 10.5 2.2.4 4.7.8 5.5 1 .8.2 4.7.7 8.5 1 3.9.4 8.4.9 10 1.2 5.4.8 51.8 1.1 59 .3 3.9-.4 9.7-1.1 13-1.4 3.3-.4 7.6-.9 9.5-1.2 18.3-2.9 32.5-5.9 46.5-9.9 5-1.5 9.9-2.9 11-3.2 1.4-.4.8.7-2.2 3.8-10 10.5-94 96.3-100.1 102.4l-5.4 5.2-5-5.1c-2.8-2.8-21.5-21.9-41.7-42.5-20.1-20.6-42.5-43.4-49.8-50.8-7.2-7.3-12.8-13.3-12.3-13.3.4 0 3.6.9 7.1 2z"/></svg>